HIERARCHY
ROOT Hips
{
	OFFSET 0.000000 0.000000 0.000000
	CHANNELS 6 Xposition Yposition Zposition Xrotation Yrotation Zrotation
	JOINT LeftUpLeg_virtual
	{
		OFFSET 0.000000 0.000000 0.000000
		CHANNELS 3 Xrotation Yrotation Zrotation
		JOINT LeftUpLeg
		{
			OFFSET 11.394100 -6.187798 -0.413800
			CHANNELS 3 Xrotation Yrotation Zrotation
			JOINT LeftLeg
			{
				OFFSET 0.430247 -32.302673 3.732800
				CHANNELS 3 Xrotation Yrotation Zrotation
				JOINT LeftFoot
				{
					OFFSET -0.430247 -48.264931 -6.423300
					CHANNELS 3 Xrotation Yrotation Zrotation
					JOINT LeftToeBase
					{
						OFFSET 4.230900 -16.068199 23.438400
						CHANNELS 3 Xrotation Yrotation Zrotation
						JOINT LeftToe_End
						{
							OFFSET 4.510700 0.695400 19.974600
							CHANNELS 3 Xrotation Yrotation Zrotation
							End Site
							{
								OFFSET 0 0 0
							}
						}
					}
				}
			}
		}
	}
	JOINT RightUpLeg_virtual
	{
		OFFSET 0.000000 0.000000 0.000000
		CHANNELS 3 Xrotation Yrotation Zrotation
		JOINT RightUpLeg
		{
			OFFSET -11.333700 -6.187798 -0.413800
			CHANNELS 3 Xrotation Yrotation Zrotation
			JOINT RightLeg
			{
				OFFSET -0.430392 -32.302628 3.733000
				CHANNELS 3 Xrotation Yrotation Zrotation
				JOINT RightFoot
				{
					OFFSET 0.430392 -48.264973 -6.423500
					CHANNELS 3 Xrotation Yrotation Zrotation
					JOINT RightToeBase
					{
						OFFSET -4.230900 -16.068199 23.438400
						CHANNELS 3 Xrotation Yrotation Zrotation
						JOINT RightToe_End
						{
							OFFSET -4.510700 0.695400 19.974600
							CHANNELS 3 Xrotation Yrotation Zrotation
							End Site
							{
								OFFSET 0 0 0
							}
						}
					}
				}
			}
		}
	}
	JOINT Spine_virtual
	{
		OFFSET 0.000000 0.000000 0.000000
		CHANNELS 3 Xrotation Yrotation Zrotation
		JOINT Spine
		{
			OFFSET -0.002400 12.777504 0.315300
			CHANNELS 3 Xrotation Yrotation Zrotation
			JOINT Spine1
			{
				OFFSET -0.002067 5.816869 0.032633
				CHANNELS 3 Xrotation Yrotation Zrotation
				JOINT Spine1_split
				{
					OFFSET -0.002067 5.816869 0.032633
					CHANNELS 3 Xrotation Yrotation Zrotation
					JOINT Spine2
					{
						OFFSET -0.002067 5.816869 0.032633
						CHANNELS 3 Xrotation Yrotation Zrotation
						JOINT Neck_virtual
						{
							OFFSET 0.000000 0.000000 0.000000
							CHANNELS 3 Xrotation Yrotation Zrotation
							JOINT Neck
							{
								OFFSET -0.003700 21.199493 -0.826900
								CHANNELS 3 Xrotation Yrotation Zrotation
								JOINT Head
								{
									OFFSET 0.000000 20.442200 4.834800
									CHANNELS 3 Xrotation Yrotation Zrotation
									JOINT HeadTop_End
									{
										OFFSET 0.000000 34.668396 4.968400
										CHANNELS 3 Xrotation Yrotation Zrotation
										End Site
										{
											OFFSET 0 0 0
										}
									}
								}
							}
						}
						JOINT LeftShoulder_virtual
						{
							OFFSET 0.000000 0.000000 0.000000
							CHANNELS 3 Xrotation Yrotation Zrotation
							JOINT LeftShoulder
							{
								OFFSET 3.288150 8.794197 -1.372250
								CHANNELS 3 Xrotation Yrotation Zrotation
								JOINT LeftShoulder_split
								{
									OFFSET 3.288150 8.794197 -1.372250
									CHANNELS 3 Xrotation Yrotation Zrotation
									JOINT LeftArm
									{
										OFFSET 11.953299 -2.279007 -0.146200
										CHANNELS 3 Xrotation Yrotation Zrotation
										JOINT LeftForeArm
										{
											OFFSET 18.448900 0.000000 0.000000
											CHANNELS 3 Xrotation Yrotation Zrotation
											JOINT LeftHand
											{
												OFFSET 29.527798 0.000000 0.000000
												CHANNELS 3 Xrotation Yrotation Zrotation
												End Site
												{
													OFFSET 0 0 0
												}
											}
										}
									}
								}
							}
						}
						JOINT RightShoulder_virtual
						{
							OFFSET 0.000000 0.000000 0.000000
							CHANNELS 3 Xrotation Yrotation Zrotation
							JOINT RightShoulder
							{
								OFFSET -3.249400 8.794197 -1.372250
								CHANNELS 3 Xrotation Yrotation Zrotation
								JOINT RightShoulder_split
								{
									OFFSET -3.249400 8.794197 -1.372250
									CHANNELS 3 Xrotation Yrotation Zrotation
									JOINT RightArm
									{
										OFFSET -11.953299 -2.279007 -0.146200
										CHANNELS 3 Xrotation Yrotation Zrotation
										JOINT RightForeArm
										{
											OFFSET -18.448900 0.000000 0.000000
											CHANNELS 3 Xrotation Yrotation Zrotation
											JOINT RightHand
											{
												OFFSET -29.527802 0.000000 0.000000
												CHANNELS 3 Xrotation Yrotation Zrotation
												End Site
												{
													OFFSET 0 0 0
												}
											}
										}
									}
								}
							}
						}
					}
				}
			}
		}
	}
}
MOTION
Frames: 11
Frame Time: 0.03333333
-0.620033 133.776901 17.040609 0.000000 0.000000 0.000000 -88.326142 -7.450087 -0.597145 -12.366809 19.914728 14.354600 5.840269 0.237655 4.715242 13.900935 26.959501 -17.627506 -5.287067 0.069465 1.651343 0.000000 0.000000 0.000000 -90.228705 -4.899713 0.608258 -19.513125 -18.390114 -16.687991 17.043129 -3.336427 -5.973224 23.193318 -30.451336 26.566531 -12.539578 1.548173 -4.908926 0.000000 0.000000 0.000000 -87.455443 -7.508207 -2.168022 1.572662 -0.588239 -0.335651 -1.283990 0.177238 -0.202117 0.633221 0.776968 -0.308801 0.000000 0.000000 0.000000 -1.155102 0.373791 -0.274116 -5.949015 3.672755 -8.130837 6.042857 8.586017 -12.863601 0.000000 0.000000 0.000000 -0.326648 0.341750 -0.088054 0.447184 -5.734167 -0.672111 -0.053855 1.592162 -2.749835 44.066273 -41.987365 -32.657399 4.974790 -86.282529 4.503844 0.000000 0.000000 0.000000 -0.212556 0.591483 -0.592692 0.387759 0.217746 2.276337 7.588859 7.780785 -0.907078 -4.519885 1.757311 81.306285 -179.408784 54.886488 -179.907046 0.000000 0.000000 0.000000 
-0.605847 133.763931 17.032219 0.000000 0.000000 0.000000 -88.341018 -7.475420 -0.591706 -12.341517 19.869927 14.328844 5.839394 0.204906 4.712600 13.918923 26.953265 -17.628636 -5.297851 0.066164 1.630799 0.000000 0.000000 0.000000 -90.225740 -4.905873 0.629559 -19.557425 -18.391128 -16.703735 17.083968 -3.358182 -5.990723 23.195596 -30.484343 26.567462 -12.473053 1.547395 -4.917671 0.000000 0.000000 0.000000 -87.470906 -7.520206 -2.164757 1.578703 -0.588603 -0.323132 -1.287377 0.180614 -0.202148 0.640736 0.772553 -0.299679 0.000000 0.000000 0.000000 -1.163241 0.382337 -0.279912 -5.925784 3.721329 -8.129873 6.613024 8.745283 -13.238526 0.000000 0.000000 0.000000 -0.315165 0.338771 -0.086615 0.437059 -5.756734 -0.723217 -0.054647 1.603595 -2.647093 44.024346 -41.994547 -32.739904 4.889760 -86.251998 4.426354 0.000000 0.000000 0.000000 -0.204865 0.596334 -0.594033 0.395398 0.226751 2.297562 7.583422 7.794223 -0.913798 -4.481000 1.737008 81.212131 -179.405492 54.824125 -179.898618 0.000000 0.000000 0.000000 
-0.590884 133.746185 17.017368 0.000000 0.000000 0.000000 -88.352247 -7.507445 -0.592084 -12.327515 19.819886 14.303402 5.844517 0.169638 4.710185 13.933587 26.945591 -17.631129 -5.308521 0.061835 1.611878 0.000000 0.000000 0.000000 -90.220857 -4.923931 0.641821 -19.611660 -18.396840 -16.717218 17.115722 -3.379882 -6.007559 23.191086 -30.518525 26.562971 -12.409204 1.545154 -4.922698 0.000000 0.000000 0.000000 -87.480790 -7.538638 -2.160869 1.578777 -0.585580 -0.305953 -1.294131 0.188423 -0.202892 0.647253 0.785772 -0.279233 0.000000 0.000000 0.000000 -1.179324 0.392845 -0.284364 -5.897395 3.790773 -8.140570 7.367883 8.931213 -13.745899 0.000000 0.000000 0.000000 -0.306888 0.339272 -0.082178 0.422817 -5.763748 -0.784497 -0.049854 1.605611 -2.551476 44.003432 -42.009468 -32.770104 4.713905 -86.228563 4.256875 0.000000 0.000000 0.000000 -0.199596 0.602200 -0.598902 0.398706 0.192107 2.306949 7.601843 7.827784 -0.914518 -4.439420 1.717169 81.125859 -179.392924 54.748051 -179.906186 0.000000 0.000000 0.000000 
-0.576659 133.726746 16.995754 0.000000 0.000000 0.000000 -88.358373 -7.541950 -0.598575 -12.327104 19.768480 14.281045 5.854171 0.132503 4.708336 13.944944 26.936425 -17.637377 -5.319089 0.056775 1.595807 0.000000 0.000000 0.000000 -90.212797 -4.949774 0.645166 -19.669668 -18.408743 -16.727564 17.129566 -3.400344 -6.022124 23.183204 -30.548287 26.555803 -12.352606 1.542024 -4.925963 0.000000 0.000000 0.000000 -87.483044 -7.562355 -2.159241 1.572214 -0.581065 -0.285173 -1.302679 0.197276 -0.203605 0.646235 0.807973 -0.258978 0.000000 0.000000 0.000000 -1.200782 0.403322 -0.286349 -5.882731 3.872196 -8.153158 8.199679 9.105888 -14.318067 0.000000 0.000000 0.000000 -0.303265 0.341937 -0.075260 0.407550 -5.753931 -0.849620 -0.040373 1.598872 -2.475895 44.010457 -42.032578 -32.755603 4.452408 -86.208162 3.999912 0.000000 0.000000 0.000000 -0.197501 0.607142 -0.605998 0.398108 0.118373 2.301714 7.637571 7.865171 -0.908723 -4.404642 1.700964 81.068533 -179.372775 54.680503 -179.928274 0.000000 0.000000 0.000000 
-0.564791 133.710205 16.972549 0.000000 0.000000 0.000000 -88.358353 -7.576469 -0.611956 -12.340765 19.720612 14.264875 5.868098 0.097692 4.707147 13.956115 26.926723 -17.649113 -5.331462 0.051302 1.583378 0.000000 0.000000 0.000000 -90.201602 -4.978974 0.638774 -19.722111 -18.428089 -16.732683 17.117421 -3.420156 -6.033058 23.174386 -30.570359 26.547303 -12.305725 1.538938 -4.929752 0.000000 0.000000 0.000000 -87.476371 -7.589286 -2.163054 1.560056 -0.575341 -0.262666 -1.310941 0.204505 -0.203321 0.645674 0.843399 -0.239702 0.000000 0.000000 0.000000 -1.226727 0.411491 -0.284448 -5.900452 3.950019 -8.161268 9.001344 9.235585 -14.871139 0.000000 0.000000 0.000000 -0.305251 0.345455 -0.066622 0.394620 -5.729923 -0.909625 -0.029243 1.580525 -2.424954 44.045967 -42.064864 -32.710377 4.125915 -86.180895 3.676972 0.000000 0.000000 0.000000 -0.198744 0.610256 -0.613556 0.393613 0.014859 2.284329 7.679614 7.898030 -0.891390 -4.382955 1.699294 81.046362 -179.346752 54.639229 -179.961797 0.000000 0.000000 0.000000 
-0.555635 133.698425 16.950466 0.000000 0.000000 0.000000 -88.352752 -7.605519 -0.629272 -12.367010 19.682732 14.257180 5.884531 0.069723 4.705949 13.969282 26.918470 -17.665311 -5.348089 0.045702 1.575131 0.000000 0.000000 0.000000 -90.187129 -5.006672 0.624534 -19.762013 -18.453079 -16.731213 17.080818 -3.439485 -6.039211 23.164663 -30.584549 26.536827 -12.268160 1.536947 -4.936098 0.000000 0.000000 0.000000 -87.461330 -7.616455 -2.172477 1.548064 -0.569267 -0.240313 -1.316986 0.209070 -0.201558 0.644837 0.890117 -0.226616 0.000000 0.000000 0.000000 -1.253831 0.417255 -0.279183 -5.953296 4.013420 -8.158968 9.667354 9.297661 -15.333069 0.000000 0.000000 0.000000 -0.313361 0.349279 -0.057019 0.386518 -5.693858 -0.961082 -0.010330 1.546800 -2.402415 44.105933 -42.103257 -32.648960 3.784384 -86.137100 3.337147 0.000000 0.000000 0.000000 -0.202570 0.612269 -0.619987 0.387406 -0.102652 2.258481 7.718133 7.918114 -0.860044 -4.377738 1.717012 81.056088 -179.317410 54.619093 179.998748 0.000000 0.000000 0.000000 
-0.551007 133.692551 16.934376 0.000000 0.000000 0.000000 -88.341790 -7.629332 -0.650658 -12.404400 19.661797 14.259792 5.904335 0.054554 4.704409 13.982756 26.914536 -17.680839 -5.368778 0.040279 1.571073 0.000000 0.000000 0.000000 -90.169924 -5.030533 0.604011 -19.785622 -18.479801 -16.721944 17.027443 -3.459434 -6.040429 23.153120 -30.592834 26.522803 -12.237336 1.536898 -4.945574 0.000000 0.000000 0.000000 -87.441086 -7.642101 -2.185851 1.539825 -0.562731 -0.220564 -1.320693 0.210843 -0.197727 0.647851 0.937155 -0.221389 0.000000 0.000000 0.000000 -1.280521 0.421396 -0.271499 -6.034319 4.054497 -8.148388 10.129329 9.282312 -15.647781 0.000000 0.000000 0.000000 -0.326875 0.354280 -0.047405 0.383592 -5.649928 -0.999624 0.018590 1.512082 -2.405297 44.181581 -42.140252 -32.579476 3.489105 -86.076339 3.041988 0.000000 0.000000 0.000000 -0.207878 0.614218 -0.624926 0.380185 -0.219494 2.230855 7.752793 7.923646 -0.822827 -4.388970 1.755418 81.090991 -179.287739 54.614882 179.959188 0.000000 0.000000 0.000000 
-0.551076 133.691223 16.922100 0.000000 0.000000 0.000000 -88.323908 -7.646755 -0.674056 -12.448695 19.661398 14.271528 5.925880 0.054816 4.702228 13.993922 26.916464 -17.692577 -5.391444 0.035504 1.571142 0.000000 0.000000 0.000000 -90.151353 -5.051424 0.576929 -19.792869 -18.501309 -16.704250 16.968878 -3.480104 -6.036883 23.139035 -30.597779 26.504780 -12.212835 1.538858 -4.957504 0.000000 0.000000 0.000000 -87.417890 -7.664880 -2.201788 1.538156 -0.554308 -0.205252 -1.321099 0.212234 -0.192755 0.644279 0.982037 -0.222653 0.000000 0.000000 0.000000 -1.302980 0.426039 -0.263577 -6.122168 4.071508 -8.136190 10.346234 9.198671 -15.787844 0.000000 0.000000 0.000000 -0.345512 0.362136 -0.038507 0.385174 -5.601225 -1.023006 0.043170 1.476884 -2.418297 44.259735 -42.168266 -32.504320 3.292472 -86.012770 2.843929 0.000000 0.000000 0.000000 -0.213808 0.617961 -0.628854 0.373222 -0.319450 2.206267 7.781794 7.927478 -0.784107 -4.411778 1.811532 81.139471 -179.260282 54.617194 179.925392 0.000000 0.000000 0.000000 
-0.556864 133.692520 16.913773 0.000000 0.000000 0.000000 -88.300085 -7.656528 -0.695396 -12.496640 19.679865 14.291352 5.948728 0.069737 4.699702 13.998564 26.923959 -17.699617 -5.413544 0.031794 1.575267 0.000000 0.000000 0.000000 -90.130821 -5.068165 0.548158 -19.786923 -18.510140 -16.679262 16.916391 -3.500837 -6.029793 23.122835 -30.600832 26.485539 -12.197452 1.542516 -4.970300 0.000000 0.000000 0.000000 -87.395071 -7.683549 -2.216046 1.542427 -0.544138 -0.195459 -1.318572 0.215332 -0.187596 0.634337 1.015366 -0.232322 0.000000 0.000000 0.000000 -1.319380 0.432627 -0.257196 -6.193256 4.070004 -8.131284 10.316255 9.063536 -15.756287 0.000000 0.000000 0.000000 -0.367802 0.373937 -0.031914 0.389230 -5.551837 -1.034623 0.066864 1.451585 -2.445339 44.334403 -42.180257 -32.424660 3.224868 -85.964679 2.772681 0.000000 0.000000 0.000000 -0.219198 0.624517 -0.632911 0.368228 -0.390033 2.189824 7.804044 7.929351 -0.749809 -4.445231 1.874411 81.195049 -179.236035 54.620859 179.899683 0.000000 0.000000 0.000000 
-0.567344 133.694366 16.907944 0.000000 0.000000 0.000000 -88.270865 -7.659548 -0.712755 -12.543412 19.711212 14.315996 5.970640 0.096627 4.697556 13.998635 26.934383 -17.705710 -5.433764 0.029507 1.583489 0.000000 0.000000 0.000000 -90.111007 -5.080582 0.520943 -19.770580 -18.501541 -16.648125 16.873170 -3.520866 -6.021084 23.105032 -30.602881 26.466992 -12.193156 1.547066 -4.982037 0.000000 0.000000 0.000000 -87.373105 -7.698863 -2.227229 1.549293 -0.532342 -0.191211 -1.313617 0.220774 -0.184238 0.617710 1.035085 -0.243553 0.000000 0.000000 0.000000 -1.328476 0.441199 -0.253735 -6.228131 4.054898 -8.143098 10.067224 8.899917 -15.572968 0.000000 0.000000 0.000000 -0.390353 0.389556 -0.029082 0.393932 -5.507790 -1.037592 0.081077 1.432778 -2.475786 44.399764 -42.169455 -32.341820 3.264485 -85.948464 2.806920 0.000000 0.000000 0.000000 -0.223462 0.634236 -0.637698 0.365515 -0.426384 2.181982 7.816572 7.930707 -0.718246 -4.487663 1.930792 81.249198 -179.216391 54.635281 179.882703 0.000000 0.000000 0.000000 
-0.580740 133.695389 16.903002 0.000000 0.000000 0.000000 -88.240737 -7.655158 -0.722457 -12.584379 19.745172 14.341850 5.990795 0.131910 4.695913 13.998687 26.944669 -17.715742 -5.450777 0.028820 1.595504 0.000000 0.000000 0.000000 -90.093166 -5.087778 0.499920 -19.747159 -18.473797 -16.612833 16.839092 -3.540291 -6.012732 23.086154 -30.605453 26.450712 -12.201050 1.551650 -4.991182 0.000000 0.000000 0.000000 -87.352505 -7.709458 -2.233103 1.555127 -0.520280 -0.191628 -1.305050 0.229207 -0.183930 0.598581 1.041810 -0.261870 0.000000 0.000000 0.000000 -1.329237 0.450931 -0.253754 -6.215559 4.034326 -8.174031 9.641508 8.731598 -15.273625 0.000000 0.000000 0.000000 -0.410325 0.407353 -0.030748 0.397899 -5.474463 -1.038123 0.094226 1.410145 -2.513700 44.458558 -42.135946 -32.254417 3.389778 -85.964679 2.923481 0.000000 0.000000 0.000000 -0.225699 0.646465 -0.643202 0.365408 -0.427571 2.179711 7.816198 7.923788 -0.692175 -4.537275 1.965551 81.294790 -179.202307 54.657291 179.873209 0.000000 0.000000 0.000000 
